<svg width="32" height="32" viewBox="0 0 32 32" fill="none" xmlns="http://www.w3.org/2000/svg">
<g clip-path="url(#clip0_3934_38)">
<path d="M16 0C24.837 0 32 7.163 32 16C32 24.837 24.837 32 16 32C7.163 32 0 24.837 0 16C0 7.163 7.163 0 16 0Z" fill="url(#paint0_linear_3934_38)"/>
<path d="M20.4482 13.1757C20.3892 12.7078 20.4131 12.0749 20.414 11.5917C20.4158 10.7481 20.4018 9.89766 20.4804 9.05813C20.496 8.89072 20.4773 8.86785 20.599 8.76466C20.8285 8.72838 22.4056 8.7356 22.5768 8.83C22.6768 9.10022 22.6239 11.667 22.6234 12.1709L22.6174 17.9157C22.5199 18.0636 22.6026 21.2521 22.5593 21.7057C22.5257 22.058 22.6182 22.7432 22.5195 23.1257C22.5153 23.1484 22.3217 23.2254 22.268 23.2682C21.9201 23.2395 20.6658 23.3135 20.503 23.2291C20.2825 22.6313 20.4954 20.8028 20.4178 20.0729C20.3902 19.8133 20.3845 19.0513 20.4606 18.8141C17.5079 18.769 14.493 18.8622 11.5538 18.8128C11.6271 19.7423 11.5351 20.7393 11.5719 21.6768C11.5865 22.0477 11.6304 22.9062 11.4947 23.2268C11.279 23.3396 10.3779 23.2303 10.086 23.2553C9.90378 23.271 9.53125 23.2984 9.41547 23.1516C9.359 22.8002 9.37772 21.9228 9.37775 21.533L9.37835 18.6348L9.37828 12.7953C9.37813 12.3271 9.33269 9.08881 9.4665 8.82113C9.69894 8.71113 11.1398 8.75385 11.5202 8.75319C11.6101 9.51341 11.5693 10.4378 11.5718 11.2074C11.5739 11.8489 11.5975 12.5708 11.5433 13.2022C13.2217 13.2634 15.1857 13.2145 16.8834 13.2153L19.0195 13.2155C19.4403 13.2148 20.0423 13.2238 20.4482 13.1757ZM11.5614 14.9516C11.581 15.7205 11.6053 16.2969 11.5498 17.067C12.0972 16.9802 12.5657 17.0348 13.1101 17.0503C14.8969 17.1012 16.6898 17.0438 18.4766 17.0663C19.0884 17.066 19.8621 16.9953 20.4311 17.081C20.4056 16.8113 20.3756 15.2212 20.4291 14.9435C20.1392 15.0152 18.931 14.9557 18.5452 14.9532L15.5789 14.9521C14.945 14.9513 14.2359 14.9352 13.6092 14.954C13.0475 14.9609 12.0932 15.0254 11.5784 14.9542L11.5614 14.9516Z" fill="#FEFEFE"/>
<path d="M22.268 23.2682C22.3217 23.2254 22.5153 23.1484 22.5195 23.1257C22.6182 22.7432 22.5257 22.058 22.5593 21.7057C22.6026 21.2521 22.5199 18.0636 22.6174 17.9157L22.6293 21.2004C22.6335 21.7919 22.6442 22.4013 22.6391 22.9942C22.638 23.1115 22.6293 23.1386 22.569 23.2223C22.4585 23.2784 22.3938 23.2745 22.268 23.2682Z" fill="#FEFEFE" fill-opacity="0.968627"/>
</g>
<defs>
<linearGradient id="paint0_linear_3934_38" x1="-8.81892" y1="0.153248" x2="34.2341" y2="27.642" gradientUnits="userSpaceOnUse">
<stop offset="0.02" stop-color="#433273"/>
<stop offset="0.215" stop-color="#433475"/>
<stop offset="0.38" stop-color="#413C7A"/>
<stop offset="0.55" stop-color="#392968"/>
<stop offset="0.71" stop-color="#312652"/>
<stop offset="0.98" stop-color="#0C0C0C"/>
<stop offset="1"/>
</linearGradient>
<clipPath id="clip0_3934_38">
<rect width="32" height="32" fill="white"/>
</clipPath>
</defs>
</svg>
