<svg xmlns="http://www.w3.org/2000/svg" width="106" height="106" fill="none"><g clip-path="url(#a)"><rect width="106" height="106" fill="url(#b)" rx="17.697"/><path fill="#fff" d="M28.408 60V46.24h4.68c1.186 0 2.153.06 2.9.18.76.12 1.353.333 1.78.64.44.293.753.707.94 1.24.2.52.326 1.173.38 1.96.053.787.08 1.74.08 2.86 0 1.12-.027 2.073-.08 2.86-.054.787-.18 1.447-.38 1.98-.187.52-.5.933-.94 1.24-.427.293-1.02.5-1.78.62-.747.12-1.714.18-2.9.18h-4.68Zm2.84-2.32h1.68a25.8 25.8 0 0 0 1.6-.04c.426-.04.76-.127 1-.26.253-.133.433-.36.54-.68.106-.333.173-.787.2-1.36.04-.573.06-1.313.06-2.22 0-.893-.02-1.627-.06-2.2-.027-.587-.1-1.04-.22-1.36-.107-.32-.287-.547-.54-.68-.24-.147-.567-.233-.98-.26-.414-.04-.947-.06-1.6-.06h-1.68v9.12ZM41.84 60V49.8h2.48l.08 1.76h.16c.173-.507.407-.9.7-1.18.307-.28.673-.473 1.1-.58a6.04 6.04 0 0 1 1.46-.16v2.52c-.867 0-1.547.12-2.04.36-.48.24-.82.633-1.02 1.18-.187.547-.28 1.287-.28 2.22V60h-2.64Zm10.195.16c-.653 0-1.206-.093-1.66-.28-.453-.2-.8-.52-1.04-.96-.226-.453-.34-1.047-.34-1.78 0-.787.094-1.407.28-1.86.187-.467.514-.8.98-1 .467-.213 1.114-.32 1.94-.32.134 0 .32.007.56.02.24 0 .514.007.82.02.307 0 .614.007.92.02.307 0 .587.007.84.02v-.4c0-.44-.033-.787-.1-1.04-.066-.253-.193-.44-.38-.56-.186-.12-.46-.193-.82-.22-.36-.027-.826-.04-1.4-.04a30.115 30.115 0 0 0-3 .16v-2a25.338 25.338 0 0 1 3.88-.3c.8 0 1.467.053 2 .16.547.093.98.247 1.3.46.334.213.58.487.74.82.174.32.287.707.34 1.16.054.44.08.947.08 1.52V60h-2.46l-.08-1.24h-.16c-.226.413-.526.72-.9.92-.36.2-.746.327-1.16.38-.4.067-.793.1-1.18.1Zm1.26-2.04c.294 0 .547-.02.76-.06.227-.04.42-.107.58-.2.174-.107.307-.24.4-.4.094-.173.167-.387.22-.64.054-.253.08-.56.08-.92v-.3h-2.42c-.373 0-.66.027-.86.08a.548.548 0 0 0-.4.36c-.066.187-.1.467-.1.84 0 .347.04.613.12.8.08.173.247.293.5.36.254.053.627.08 1.12.08ZM61.706 60v-8.06h-1.96V49.8h1.96v-2.96h2.66v2.96h2.32v2.14h-2.32V60h-2.66Zm9.138.16c-.653 0-1.207-.093-1.66-.28-.453-.2-.8-.52-1.04-.96-.227-.453-.34-1.047-.34-1.78 0-.787.093-1.407.28-1.86.186-.467.513-.8.98-1 .467-.213 1.113-.32 1.94-.32.133 0 .32.007.56.02.24 0 .513.007.82.02.306 0 .613.007.92.02.306 0 .587.007.84.02v-.4c0-.44-.034-.787-.1-1.04-.067-.253-.194-.44-.38-.56-.187-.12-.46-.193-.82-.22-.36-.027-.827-.04-1.4-.04a30.115 30.115 0 0 0-3 .16v-2a25.338 25.338 0 0 1 3.88-.3c.8 0 1.466.053 2 .16.547.093.98.247 1.3.46.333.213.58.487.74.82.173.32.286.707.34 1.16.053.44.08.947.08 1.52V60h-2.46l-.08-1.24h-.16c-.227.413-.527.72-.9.92-.36.2-.747.327-1.16.38-.4.067-.793.1-1.18.1Zm1.26-2.04c.293 0 .546-.02.76-.06.227-.04.42-.107.58-.2a1.16 1.16 0 0 0 .4-.4c.093-.173.166-.387.22-.64.053-.253.08-.56.08-.92v-.3h-2.42c-.374 0-.66.027-.86.08a.548.548 0 0 0-.4.36c-.067.187-.1.467-.1.84 0 .347.04.613.12.8.08.173.247.293.5.36.253.053.627.08 1.12.08Z"/></g><defs><linearGradient id="b" x1="11.437" x2="105.937" y1=".24" y2="106.24" gradientUnits="userSpaceOnUse"><stop stop-color="#2B1C57"/><stop offset=".375" stop-color="#4A397C"/><stop offset=".591" stop-color="#7B709E"/><stop offset=".736" stop-color="#ADA6C0"/><stop offset=".817" stop-color="#CBC8D5"/><stop offset=".928" stop-color="#EBEBEB"/></linearGradient><clipPath id="a"><rect width="106" height="106" fill="#fff" rx="17.697"/></clipPath></defs></svg>