<svg xmlns="http://www.w3.org/2000/svg" width="106" height="106" fill="none"><g clip-path="url(#a)"><rect width="106" height="106" fill="url(#b)" rx="17.697"/><path fill="#fff" d="M21.27 60.16c-.974 0-1.788-.06-2.44-.18-.654-.12-1.18-.313-1.58-.58-.4-.267-.708-.64-.92-1.12-.2-.48-.34-1.08-.42-1.8a29.46 29.46 0 0 1-.1-2.62v-7.62h2.84v8.34c0 .707.02 1.28.06 1.72.052.427.152.753.3.98.16.227.42.38.78.46.36.067.852.1 1.48.1.626 0 1.112-.033 1.46-.1.36-.08.62-.233.78-.46.16-.227.26-.553.3-.98.04-.44.06-1.013.06-1.72v-8.34h2.84v7.62c0 1.013-.04 1.887-.12 2.62-.068.72-.2 1.32-.4 1.8s-.5.853-.9 1.12c-.4.267-.928.46-1.58.58-.654.12-1.468.18-2.44.18Zm14.124 0c-.387 0-.773-.04-1.16-.12-.387-.067-.74-.2-1.06-.4-.32-.2-.587-.5-.8-.9h-.14l-.08 1.26h-2.48V45.14h2.64v5.78h.14a2.24 2.24 0 0 1 .76-.78 2.935 2.935 0 0 1 1.02-.38c.387-.08.8-.12 1.24-.12.627 0 1.153.087 1.58.26.44.173.793.46 1.06.86.267.4.46.94.58 1.62.133.667.2 1.507.2 2.52 0 1.027-.067 1.88-.2 2.56-.12.667-.32 1.2-.6 1.6-.28.387-.647.667-1.1.84-.44.173-.973.26-1.6.26Zm-1.12-2.28c.44 0 .793-.027 1.06-.08.267-.067.46-.193.58-.38.133-.2.22-.5.26-.9.04-.4.06-.94.06-1.62 0-.68-.02-1.213-.06-1.6-.04-.4-.127-.693-.26-.88-.12-.2-.313-.327-.58-.38-.267-.067-.62-.1-1.06-.1-.427 0-.767.047-1.02.14a1 1 0 0 0-.58.46c-.147.24-.247.553-.3.94-.04.387-.06.86-.06 1.42 0 .547.02 1.02.06 1.42.053.387.153.707.3.96.133.2.327.353.58.46.253.093.593.14 1.02.14Zm7.06-10.38v-2.36h2.74v2.36h-2.74Zm.04 12.5V49.8h2.66V60h-2.66Zm9.447.16c-.813 0-1.487-.073-2.02-.22-.52-.147-.94-.36-1.26-.64a2.527 2.527 0 0 1-.68-1.04 5.845 5.845 0 0 1-.28-1.48c-.04-.573-.06-1.207-.06-1.9 0-.667.02-1.273.06-1.82.053-.56.16-1.053.32-1.48.16-.427.393-.78.7-1.06.307-.293.72-.513 1.24-.66.52-.147 1.173-.22 1.96-.22.507 0 1.027.027 1.56.08.533.053.987.127 1.36.22v2a8.755 8.755 0 0 0-1.06-.12c-.427-.027-.82-.04-1.18-.04-.52 0-.933.04-1.24.12a1.18 1.18 0 0 0-.68.46c-.147.213-.247.527-.3.94-.053.413-.08.947-.08 1.6 0 .667.027 1.207.08 1.62.053.413.16.733.32.96.16.213.393.36.7.44.32.067.733.1 1.24.1.32 0 .68-.013 1.08-.04.413-.027.813-.06 1.2-.1v1.98a9.68 9.68 0 0 1-1.38.22c-.547.053-1.08.08-1.6.08Zm8.518 0c-.693 0-1.253-.087-1.68-.26-.426-.173-.753-.427-.98-.76-.213-.333-.36-.747-.44-1.24-.08-.493-.12-1.067-.12-1.72V49.8h2.64v5.4c0 .613.02 1.1.06 1.46.04.36.12.627.24.8.12.173.3.287.54.34.24.04.56.06.96.06.427 0 .774-.047 1.04-.14.267-.107.46-.267.58-.48.134-.227.22-.513.26-.86.04-.36.06-.793.06-1.3V49.8h2.64V60h-2.46l-.08-1.28h-.18c-.16.32-.386.593-.68.82-.28.213-.62.367-1.02.46-.4.107-.86.16-1.38.16Zm8.596-12.66v-2.36h2.74v2.36h-2.74Zm.04 12.5V49.8h2.66V60h-2.66Zm6.468 0v-8.06h-1.96V49.8h1.96v-2.96h2.66v2.96h2.32v2.14h-2.32V60h-2.66Zm11.013 4.12c-.4 0-.814-.013-1.24-.04-.427-.013-.834-.04-1.22-.08a15.6 15.6 0 0 1-1.02-.1v-1.96c.48.013.886.02 1.22.02.346.013.646.02.9.02h.72c.68 0 1.206-.033 1.58-.1.386-.067.666-.193.84-.38.186-.187.3-.453.34-.8a8.74 8.74 0 0 0 .08-1.32v-.68h-.16c-.147.293-.36.54-.64.74-.267.2-.594.353-.98.46-.387.093-.847.14-1.38.14-.694 0-1.254-.087-1.68-.26-.427-.173-.754-.427-.98-.76-.214-.333-.36-.74-.44-1.22-.08-.493-.12-1.067-.12-1.72V49.8h2.64v5.3c0 .627.02 1.12.06 1.48.04.36.12.627.24.8.12.16.3.267.54.32.24.04.56.06.96.06.426 0 .773-.047 1.04-.14.266-.107.46-.267.58-.48.133-.227.22-.513.26-.86.04-.36.06-.793.06-1.3V49.8h2.64v9.04c0 .92-.047 1.713-.14 2.38-.094.667-.3 1.213-.62 1.64-.307.427-.787.74-1.44.94-.654.213-1.534.32-2.64.32Z"/></g><defs><linearGradient id="b" x1="11.437" x2="105.937" y1=".24" y2="106.24" gradientUnits="userSpaceOnUse"><stop stop-color="#2B1C57"/><stop offset=".317" stop-color="#4A397C"/><stop offset=".534" stop-color="#473B86"/><stop offset="1" stop-color="#5543CE"/></linearGradient><clipPath id="a"><rect width="106" height="106" fill="#fff" rx="17.697"/></clipPath></defs></svg>