<svg xmlns="http://www.w3.org/2000/svg" width="106" height="106" fill="none"><g clip-path="url(#a)"><rect width="106" height="106" fill="url(#b)" rx="17.697"/><path fill="#fff" d="m34.529 49 4.66-13.76h3.8L47.648 49h-2.9l-1.02-3.04h-5.38l-.98 3.04h-2.84Zm4.54-5.34h3.92l-1.9-5.84h-.12l-1.9 5.84Zm10.29 9.32V38.8h2.48l.08 1.28h.14c.214-.4.48-.7.8-.9.32-.213.674-.353 1.06-.42a5.71 5.71 0 0 1 1.16-.12c.627 0 1.16.087 1.6.26.454.16.82.44 1.1.84.28.387.48.92.6 1.6.134.68.2 1.527.2 2.54 0 1.013-.066 1.86-.2 2.54-.12.68-.313 1.22-.58 1.62-.266.4-.62.687-1.06.86-.426.173-.953.26-1.58.26-.44 0-.853-.04-1.24-.12a2.976 2.976 0 0 1-1-.36 2.44 2.44 0 0 1-.76-.8H52v5.1h-2.64Zm4.6-6.12c.44 0 .794-.027 1.06-.08.267-.067.46-.193.58-.38.134-.2.22-.493.26-.88.04-.4.06-.94.06-1.62 0-.68-.02-1.22-.06-1.62-.04-.4-.126-.693-.26-.88-.12-.2-.313-.327-.58-.38-.266-.067-.62-.1-1.06-.1-.48 0-.846.067-1.1.2-.253.12-.446.313-.58.58-.12.24-.2.547-.24.92-.026.36-.04.787-.04 1.28 0 .507.014.94.04 1.3.04.347.114.64.22.88.134.28.334.48.6.6.267.12.634.18 1.1.18Zm11.64 2.3c-.907 0-1.66-.06-2.26-.18-.6-.12-1.08-.307-1.44-.56a2.664 2.664 0 0 1-.8-1c-.174-.413-.287-.907-.34-1.48-.04-.587-.06-1.26-.06-2.02 0-.907.046-1.693.14-2.36.093-.667.286-1.213.58-1.64.306-.44.773-.76 1.4-.96.64-.213 1.486-.32 2.54-.32.853 0 1.546.067 2.08.2.533.133.953.333 1.26.6.32.267.546.613.68 1.04.146.413.24.907.28 1.48.04.573.06 1.227.06 1.96v.78h-6.38c0 .507.02.92.06 1.24.053.307.166.54.34.7.186.16.473.267.86.32.4.053.94.08 1.62.08a31.978 31.978 0 0 0 2.04-.08c.386-.027.74-.053 1.06-.08v1.96c-.294.067-.654.12-1.08.16a22.465 22.465 0 0 1-2.64.16Zm1.6-5.78v-.32c0-.52-.034-.933-.1-1.24-.054-.32-.154-.56-.3-.72a.89.89 0 0 0-.56-.3 4.362 4.362 0 0 0-.92-.08c-.44 0-.787.033-1.04.1a.944.944 0 0 0-.58.34c-.134.16-.227.4-.28.72-.054.307-.08.7-.08 1.18h4.22l-.36.32ZM29.872 71V57.24h6.72c.894 0 1.62.133 2.18.4.574.253.994.64 1.26 1.16.28.507.42 1.14.42 1.9 0 .627-.086 1.16-.26 1.6-.173.44-.433.793-.78 1.06-.346.267-.793.46-1.34.58v.08c.614.12 1.1.32 1.46.6.374.267.64.627.8 1.08.16.44.24.993.24 1.66a5.3 5.3 0 0 1-.2 1.5c-.133.44-.353.82-.66 1.14-.293.32-.693.567-1.2.74-.506.173-1.14.26-1.9.26h-6.74Zm2.84-2.28h2.96c.534 0 .954-.047 1.26-.14.307-.107.514-.287.62-.54.12-.267.18-.633.18-1.1 0-.453-.06-.807-.18-1.06-.12-.267-.333-.453-.64-.56-.293-.107-.706-.16-1.24-.16h-2.96v3.56Zm0-5.8h2.86c.507 0 .907-.053 1.2-.16.307-.107.52-.28.64-.52.134-.253.2-.58.2-.98 0-.467-.06-.82-.18-1.06-.106-.253-.306-.427-.6-.52-.28-.093-.7-.14-1.26-.14h-2.86v3.38Zm14.756 8.24c-.88 0-1.613-.053-2.2-.16-.586-.107-1.046-.28-1.38-.52a2.13 2.13 0 0 1-.74-.96c-.146-.4-.246-.9-.3-1.5-.04-.6-.06-1.313-.06-2.14 0-.827.02-1.533.06-2.12.054-.6.154-1.1.3-1.5.16-.4.407-.72.74-.96.334-.24.794-.407 1.38-.5.587-.107 1.32-.16 2.2-.16.88 0 1.607.053 2.18.16.587.093 1.047.26 1.38.5.347.24.594.56.74.96.16.4.26.9.3 1.5.054.587.08 1.293.08 2.12 0 .827-.026 1.54-.08 2.14-.04.6-.14 1.1-.3 1.5-.146.4-.393.72-.74.96-.333.24-.793.413-1.38.52-.573.107-1.3.16-2.18.16Zm0-2.14c.494 0 .88-.033 1.16-.1.294-.067.494-.2.6-.4.12-.213.194-.533.22-.96.027-.427.04-.987.04-1.68s-.013-1.247-.04-1.66c-.026-.427-.1-.74-.22-.94-.106-.213-.306-.347-.6-.4-.28-.067-.666-.1-1.16-.1-.506 0-.9.033-1.18.1-.28.053-.48.187-.6.4-.12.2-.193.513-.22.94-.013.413-.02.967-.02 1.66s.007 1.253.02 1.68c.027.427.1.747.22.96.12.2.32.333.6.4.28.067.674.1 1.18.1ZM54.633 71V60.8h2.48l.08 1.28h.16c.187-.333.413-.607.68-.82.28-.213.62-.367 1.02-.46.413-.107.88-.16 1.4-.16.693 0 1.247.087 1.66.26.427.173.753.427.98.76.227.333.373.747.44 1.24.08.493.12 1.067.12 1.72V71h-2.64v-5.4c0-.613-.02-1.1-.06-1.46-.04-.36-.12-.627-.24-.8-.12-.173-.3-.28-.54-.32-.24-.053-.56-.08-.96-.08-.427 0-.773.053-1.04.16a1.087 1.087 0 0 0-.58.48c-.12.213-.207.5-.26.86-.04.347-.06.773-.06 1.28V71h-2.64Zm14.975.16c-.626 0-1.16-.08-1.6-.24a2.39 2.39 0 0 1-1.08-.84c-.28-.4-.486-.94-.62-1.62-.12-.68-.18-1.527-.18-2.54 0-1.013.06-1.86.18-2.54.12-.68.314-1.22.58-1.62.28-.4.634-.687 1.06-.86.44-.173.974-.26 1.6-.26.44 0 .847.04 1.22.12.387.067.727.193 1.02.38.307.173.56.433.76.78h.16v-5.78h2.64V71h-2.48l-.08-1.26h-.14c-.2.4-.466.7-.8.9-.32.2-.673.333-1.06.4-.386.08-.78.12-1.18.12Zm1.14-2.28c.494 0 .867-.06 1.12-.18.267-.133.46-.34.58-.62.107-.267.174-.58.2-.94.04-.36.06-.773.06-1.24 0-.48-.02-.893-.06-1.24a2.678 2.678 0 0 0-.2-.88c-.12-.307-.313-.52-.58-.64-.253-.133-.626-.2-1.12-.2-.44 0-.793.033-1.06.1a.896.896 0 0 0-.6.38c-.12.187-.2.48-.24.88-.04.387-.06.92-.06 1.6s.02 1.22.06 1.62c.04.4.12.7.24.9.134.187.334.313.6.38.267.053.62.08 1.06.08Z"/></g><defs><linearGradient id="b" x1="11.437" x2="105.937" y1=".24" y2="106.24" gradientUnits="userSpaceOnUse"><stop stop-color="#2B1C57"/><stop offset=".317" stop-color="#4A397C"/><stop offset=".668" stop-color="#5A4FA6"/><stop offset=".774" stop-color="#5E56B3"/><stop offset=".928" stop-color="#6560C5"/></linearGradient><clipPath id="a"><rect width="106" height="106" fill="#fff" rx="17.697"/></clipPath></defs></svg>