<svg xmlns="http://www.w3.org/2000/svg" width="106" height="106" fill="none"><g clip-path="url(#a)"><rect width="106" height="106" fill="url(#b)" rx="17.697"/><path fill="#fff" d="M14.64 60V46.24h3.9l3.4 9.08h.12l3.38-9.08h3.88V60h-2.74v-9.58h-.1L22.92 60h-1.96l-3.56-9.58h-.1V60h-2.66Zm22.088.16c-.88 0-1.613-.053-2.2-.16-.586-.107-1.046-.28-1.38-.52a2.13 2.13 0 0 1-.74-.96c-.146-.4-.246-.9-.3-1.5-.04-.6-.06-1.313-.06-2.14 0-.827.02-1.533.06-2.12.054-.6.154-1.1.3-1.5.16-.4.407-.72.74-.96.334-.24.794-.407 1.38-.5.587-.107 1.32-.16 2.2-.16.88 0 1.607.053 2.18.16.587.093 1.047.26 1.38.5.347.24.594.56.74.96.16.4.26.9.3 1.5.054.587.08 1.293.08 2.12 0 .827-.026 1.54-.08 2.14-.04.6-.14 1.1-.3 1.5-.146.4-.393.72-.74.96-.333.24-.793.413-1.38.52-.573.107-1.3.16-2.18.16Zm0-2.14c.494 0 .88-.033 1.16-.1.294-.067.494-.2.6-.4.12-.213.194-.533.22-.96.027-.427.04-.987.04-1.68s-.013-1.247-.04-1.66c-.026-.427-.1-.74-.22-.94-.106-.213-.306-.347-.6-.4-.28-.067-.666-.1-1.16-.1-.506 0-.9.033-1.18.1-.28.053-.48.187-.6.4-.12.2-.193.513-.22.94a53.9 53.9 0 0 0-.02 1.66c0 .693.007 1.253.02 1.68.027.427.1.747.22.96.12.2.32.333.6.4.28.067.674.1 1.18.1Zm10.905 2.14c-.414 0-.86-.013-1.34-.04-.467-.027-.927-.06-1.38-.1a23.54 23.54 0 0 1-1.24-.14v-2c.2.013.433.033.7.06.28.013.58.027.9.04l.94.04c.306.013.593.02.86.02.613 0 1.053-.027 1.32-.08.28-.067.46-.173.54-.32.08-.16.12-.367.12-.62 0-.267-.027-.46-.08-.58a.424.424 0 0 0-.3-.26 5.588 5.588 0 0 0-.72-.12l-2.38-.3c-.627-.08-1.1-.247-1.42-.5a1.976 1.976 0 0 1-.64-1.02c-.107-.427-.16-.933-.16-1.52 0-.693.1-1.24.3-1.64.213-.413.5-.72.86-.92a3.577 3.577 0 0 1 1.32-.42c.52-.067 1.08-.1 1.68-.1.4 0 .813.013 1.24.04.426.027.833.067 1.22.12.4.04.733.093 1 .16v1.98a10.86 10.86 0 0 0-1.02-.08c-.374-.027-.74-.047-1.1-.06-.36-.027-.68-.04-.96-.04-.507 0-.914.02-1.22.06-.294.027-.5.107-.62.24s-.18.353-.18.66c0 .24.02.427.06.56.04.12.126.207.26.26.133.04.346.08.64.12l2.58.32c.466.053.86.16 1.18.32.32.16.553.44.7.84.16.4.24 1.007.24 1.82 0 .707-.087 1.273-.26 1.7a2.03 2.03 0 0 1-.8.96c-.347.213-.76.353-1.24.42-.467.08-1 .12-1.6.12Zm7.102-.16v-8.06h-1.96V49.8h1.96v-2.96h2.66v2.96h2.32v2.14h-2.32V60h-2.66Zm9.138.16c-.653 0-1.206-.093-1.66-.28-.453-.2-.8-.52-1.04-.96-.227-.453-.34-1.047-.34-1.78 0-.787.093-1.407.28-1.86.187-.467.514-.8.98-1 .467-.213 1.113-.32 1.94-.32.133 0 .32.007.56.02.24 0 .513.007.82.02.307 0 .614.007.92.02.307 0 .587.007.84.02v-.4c0-.44-.033-.787-.1-1.04-.066-.253-.193-.44-.38-.56-.186-.12-.46-.193-.82-.22-.36-.027-.827-.04-1.4-.04a30.115 30.115 0 0 0-3 .16v-2a25.338 25.338 0 0 1 3.88-.3c.8 0 1.467.053 2 .16.547.093.98.247 1.3.46.334.213.58.487.74.82.174.32.287.707.34 1.16.053.44.08.947.08 1.52V60h-2.46l-.08-1.24h-.16c-.227.413-.526.72-.9.92-.36.2-.746.327-1.16.38-.4.067-.793.1-1.18.1Zm1.26-2.04c.294 0 .547-.02.76-.06.227-.04.42-.107.58-.2.174-.107.307-.24.4-.4.093-.173.167-.387.22-.64.053-.253.08-.56.08-.92v-.3h-2.42c-.373 0-.66.027-.86.08a.548.548 0 0 0-.4.36c-.067.187-.1.467-.1.84 0 .347.04.613.12.8.08.173.247.293.5.36.253.053.627.08 1.12.08ZM72.222 60v-1.98l5.08-6.08h-4.84V49.8h8.2v1.98l-5.06 6.08h5.1V60h-8.48Zm13.39.16c-.654 0-1.207-.093-1.66-.28-.454-.2-.8-.52-1.04-.96-.227-.453-.34-1.047-.34-1.78 0-.787.093-1.407.28-1.86.186-.467.513-.8.98-1 .466-.213 1.113-.32 1.94-.32.133 0 .32.007.56.02.24 0 .513.007.82.02.306 0 .613.007.92.02.306 0 .586.007.84.02v-.4c0-.44-.034-.787-.1-1.04-.067-.253-.194-.44-.38-.56-.187-.12-.46-.193-.82-.22-.36-.027-.827-.04-1.4-.04a30.115 30.115 0 0 0-3 .16v-2a25.338 25.338 0 0 1 3.88-.3c.8 0 1.466.053 2 .16.546.093.98.247 1.3.46.333.213.58.487.74.82.173.32.286.707.34 1.16.053.44.08.947.08 1.52V60h-2.46l-.08-1.24h-.16a2.22 2.22 0 0 1-.9.92c-.36.2-.747.327-1.16.38-.4.067-.794.1-1.18.1Zm1.26-2.04c.293 0 .546-.02.76-.06.226-.04.42-.107.58-.2a1.16 1.16 0 0 0 .4-.4c.093-.173.166-.387.22-.64.053-.253.08-.56.08-.92v-.3h-2.42c-.374 0-.66.027-.86.08a.548.548 0 0 0-.4.36c-.067.187-.1.467-.1.84 0 .347.04.613.12.8.08.173.246.293.5.36.253.053.626.08 1.12.08Z"/></g><defs><linearGradient id="b" x1="11.437" x2="105.937" y1=".24" y2="106.24" gradientUnits="userSpaceOnUse"><stop stop-color="#2B1C57"/><stop offset=".317" stop-color="#4A397C"/><stop offset=".457" stop-color="#564276"/><stop offset=".543" stop-color="#614A71"/><stop offset=".774" stop-color="#A87D4E"/><stop offset=".88" stop-color="#C19042"/><stop offset="1" stop-color="#DBA235"/></linearGradient><clipPath id="a"><rect width="106" height="106" fill="#fff" rx="17.697"/></clipPath></defs></svg>