<svg width="400" height="400" viewBox="0 0 400 400" fill="none" xmlns="http://www.w3.org/2000/svg">
<path d="M200 390C304.934 390 390 304.934 390 200C390 95.0659 304.934 10 200 10C95.0659 10 10 95.0659 10 200C10 304.934 95.0659 390 200 390Z" fill="url(#paint0_radial_44_254)"/>
<path d="M200 180.74C210.54 180.74 219.135 189.3 219.135 200C219.135 210.19 210.54 218.852 200 218.852C189.46 218.852 180.865 210.19 180.865 200C180.865 189.3 189.46 180.74 200 180.74ZM152.623 281.522C159.07 285.394 173.191 279.484 189.46 264.199C184.14 258.186 178.921 251.665 174.009 244.837C165.764 244.046 157.567 242.821 149.451 241.169C144.233 262.976 146.177 277.955 152.623 281.522ZM159.888 223.03L156.921 217.833C155.795 220.788 154.67 223.743 153.953 226.597C156.716 227.208 159.786 227.717 162.958 228.227L159.888 223.03ZM226.809 215.285L235.098 200L226.809 184.715C223.74 179.314 220.465 174.524 217.498 169.735C211.972 169.429 206.14 169.429 200 169.429C193.86 169.429 188.028 169.429 182.502 169.735C179.535 174.524 176.26 179.314 173.191 184.715L164.902 200L173.191 215.285C176.26 220.686 179.535 225.476 182.502 230.265C188.028 230.571 193.86 230.571 200 230.571C206.14 230.571 211.972 230.571 217.498 230.265C220.465 225.476 223.74 220.686 226.809 215.285ZM200 146.807C198.056 149.049 196.009 151.392 193.963 154.144H206.037C203.991 151.392 201.944 149.049 200 146.807ZM200 253.193C201.944 250.951 203.991 248.608 206.037 245.856H193.963C196.009 248.608 198.056 250.951 200 253.193ZM247.274 118.478C240.93 114.606 226.809 120.516 210.54 135.801C215.86 141.814 221.079 148.335 225.991 155.163C234.381 155.978 242.67 157.201 250.549 158.831C255.767 137.024 253.823 122.045 247.274 118.478ZM240.112 176.97L243.079 182.167C244.205 179.212 245.33 176.257 246.047 173.403C243.284 172.792 240.214 172.283 237.042 171.773L240.112 176.97ZM254.949 105.129C269.991 113.689 271.628 136.209 265.284 162.5C291.274 170.143 310 182.778 310 200C310 217.222 291.274 229.857 265.284 237.5C271.628 263.791 269.991 286.311 254.949 294.871C240.009 303.431 219.647 293.648 200 275C180.353 293.648 159.991 303.431 144.949 294.871C130.009 286.311 128.372 263.791 134.716 237.5C108.726 229.857 90 217.222 90 200C90 182.778 108.726 170.143 134.716 162.5C128.372 136.209 130.009 113.689 144.949 105.129C159.991 96.5689 180.353 106.352 200 125C219.647 106.352 240.009 96.5689 254.949 105.129ZM251.981 200C255.46 207.643 258.53 215.285 261.088 223.03C282.577 216.61 294.651 207.439 294.651 200C294.651 192.561 282.577 183.39 261.088 176.97C258.53 184.715 255.46 192.357 251.981 200ZM148.019 200C144.54 192.357 141.47 184.715 138.912 176.97C117.423 183.39 105.349 192.561 105.349 200C105.349 207.439 117.423 216.61 138.912 223.03C141.47 215.285 144.54 207.643 148.019 200ZM240.112 223.03L237.042 228.227C240.214 227.717 243.284 227.208 246.047 226.597C245.33 223.743 244.205 220.788 243.079 217.833L240.112 223.03ZM210.54 264.199C226.809 279.484 240.93 285.394 247.274 281.522C253.823 277.955 255.767 262.976 250.549 241.169C242.67 242.799 234.381 244.022 225.991 244.837C221.079 251.665 215.86 258.186 210.54 264.199ZM159.888 176.97L162.958 171.773C159.786 172.283 156.716 172.792 153.953 173.403C154.67 176.257 155.795 179.212 156.921 182.167L159.888 176.97ZM189.46 135.801C173.191 120.516 159.07 114.606 152.623 118.478C146.177 122.045 144.233 137.024 149.451 158.831C157.567 157.179 165.764 155.954 174.009 155.163C178.921 148.335 184.14 141.814 189.46 135.801Z" fill="white"/>
<defs>
<radialGradient id="paint0_radial_44_254" cx="0" cy="0" r="1" gradientTransform="matrix(0 -529.736 922.847 0.023791 204.75 390)" gradientUnits="userSpaceOnUse">
<stop offset="0.10875" stop-color="#A2A6F5"/>
<stop offset="0.370987" stop-color="#4C2E92"/>
<stop offset="0.680513" stop-color="#2D292F"/>
<stop offset="0.855789" stop-color="#2D2D2D"/>
</radialGradient>
</defs>
</svg>
